<svg width="100" height="100" viewBox="0 0 100 100" fill="none" xmlns="http://www.w3.org/2000/svg">
<circle cx="50" cy="50" r="50" fill="white"/>
<path d="M81.4042 45.7211L73.4435 36.324L78.14 24.9023C78.5324 23.9896 78.2699 23.0106 77.6176 22.2916C76.9652 21.639 75.9204 21.3789 75.0081 21.769L63.5919 26.4677L54.2652 18.5691C53.5466 17.9164 52.5044 17.8501 51.6558 18.2428C50.8072 18.6991 50.2848 19.6144 50.3511 20.5271L51.2633 32.7979L40.7591 39.2583C39.9105 39.7809 39.5207 40.6936 39.6506 41.6726C39.7169 42.1953 39.9768 42.6516 40.303 42.978C40.6292 43.3043 41.0216 43.5006 41.4115 43.6306L49.8947 45.7212L20.9288 74.6984C19.6904 75.9374 19.6904 77.8954 20.9288 79.0707C22.1673 80.3098 24.1243 80.3098 25.2991 79.0707L54.2649 50.0936L56.2883 58.5117C56.5482 59.4244 57.2668 60.1433 58.2454 60.2734C59.2239 60.4034 60.1361 60.0133 60.6585 59.1643L67.1158 48.6551L79.4466 49.6366C80.4252 49.7029 81.3374 49.1803 81.7299 48.3313C82.186 47.4823 82.0561 46.4396 81.4037 45.7206L81.4042 45.7211Z" fill="#03A9F4"/>
</svg>
