<svg width="24" height="24" viewBox="0 0 24 24" fill="none" xmlns="http://www.w3.org/2000/svg">
<path fill-rule="evenodd" clip-rule="evenodd" d="M11.9997 3.27246C11.1608 3.27246 10.4819 3.95133 10.4819 4.79025V10.4819H4.79025C3.95133 10.4819 3.27246 11.1608 3.27246 11.9997C3.27246 12.8387 3.95133 13.5175 4.79025 13.5175H10.4819V19.2092C10.4819 20.0481 11.1608 20.727 11.9997 20.727C12.8387 20.727 13.5175 20.0481 13.5175 19.2092V13.5175H19.2092C20.0481 13.5175 20.727 12.8387 20.727 11.9997C20.727 11.1608 20.0481 10.4819 19.2092 10.4819H13.5175V4.79025C13.5175 3.95133 12.8387 3.27246 11.9997 3.27246Z" fill="white"/>
</svg>
