<svg width="18" height="18" viewBox="0 0 18 18" fill="none" xmlns="http://www.w3.org/2000/svg">
<path fill-rule="evenodd" clip-rule="evenodd" d="M15.7562 14.6198L11.5365 10.3995C12.1855 9.54741 12.5508 8.45181 12.5508 7.27481C12.5508 4.35323 10.1974 2 7.27577 2C4.35409 2 2 4.35401 2 7.27559C2 10.1972 4.35331 12.5504 7.27499 12.5504C8.45203 12.5504 9.50656 12.1852 10.3998 11.5362L14.6203 15.7565C14.7823 15.9186 14.9855 16 15.1886 16C15.3918 16 15.5942 15.9186 15.757 15.7565C16.0811 15.4317 16.0811 14.9447 15.7562 14.6199L15.7562 14.6198ZM7.27577 10.9276C5.24656 10.9276 3.62367 9.30472 3.62367 7.27559C3.62367 5.24646 5.24656 3.62362 7.27577 3.62362C9.30497 3.62362 10.9279 5.24646 10.9279 7.27559C10.9279 9.30394 9.30421 10.9276 7.27577 10.9276Z" fill="#758093"/>
</svg>
