<svg width="22" height="23" viewBox="0 0 22 23" fill="none" xmlns="http://www.w3.org/2000/svg">
<path d="M11.0156 19.4981C12.9426 19.4981 14.8036 18.8005 16.2552 17.5332L10.6114 11.8894C10.504 11.782 10.4432 11.6368 10.4432 11.4844V3.5C7.65554 3.69748 5.17211 5.3339 3.8912 7.81733C2.60973 10.3015 2.71633 13.2738 4.17167 15.6592C5.62702 18.0454 8.22066 19.5001 11.0155 19.4979L11.0156 19.4981Z" fill="#3E97CA"/>
<path d="M11.5879 3.5V10.912H18.9999C18.8604 8.99236 18.0347 7.18704 16.6738 5.82608C15.3129 4.46512 13.5077 3.63939 11.5879 3.5Z" fill="#3E97CA"/>
<path d="M12.3975 12.0566L17.0646 16.7238C18.1994 15.4194 18.8785 13.781 19 12.0566H12.3975Z" fill="#3E97CA"/>
</svg>
