<svg width="18" height="18" viewBox="0 0 18 18" fill="none" xmlns="http://www.w3.org/2000/svg">
<path fill-rule="evenodd" clip-rule="evenodd" d="M14.9668 2H2.8665C1.8333 2 1 2.83333 1 3.8665V15.5C1 16.5332 1.83333 17.3665 2.8665 17.3665H14.9668C16 17.3665 16.8333 16.5332 16.8333 15.5V3.86717C16.8333 2.83332 16 2 14.9668 2ZM2.8665 2.9668H4.58333V3.9336C4.25 4.10027 4.0332 4.45053 4.0332 4.85027C4.0332 5.41667 4.5 5.88347 5.0664 5.88347C5.6328 5.88347 6.0996 5.41667 6.0996 4.85027C6.0996 4.45053 5.86653 4.1172 5.54947 3.9336L5.55012 2.9668H8.43362V3.9336C8.10028 4.10027 7.88348 4.45053 7.88348 4.85027C7.88348 5.41667 8.35028 5.88347 8.91668 5.88347C9.48308 5.88347 9.94988 5.41667 9.94988 4.85027C9.94988 4.45053 9.73308 4.1172 9.39975 3.9336V2.9668H12.2833V3.9336C11.9499 4.10027 11.7331 4.45053 11.7331 4.85027C11.7331 5.41667 12.1999 5.88347 12.7663 5.88347C13.3327 5.88347 13.7995 5.41667 13.7995 4.85027C13.7995 4.45053 13.5665 4.1172 13.2494 3.9336L13.25 2.9668H14.9669C15.4669 2.9668 15.8666 3.36653 15.8666 3.86653V6.61653L1.96694 6.61718V3.86718C1.96694 3.36718 2.36667 2.9668 2.86667 2.9668L2.8665 2.9668ZM14.9668 16.4005H2.8665C2.3665 16.4005 1.96677 16.0007 1.96677 15.5007V7.5834H15.8664V15.5001C15.8664 16.0001 15.4667 16.4004 14.9667 16.4004L14.9668 16.4005Z" fill="#758093"/>
<path fill-rule="evenodd" clip-rule="evenodd" d="M5.983 9.33398H4.16667C3.9336 9.33398 3.75 9.51758 3.75 9.75065V10.8171C3.75 11.0501 3.9336 11.2337 4.16667 11.2337H5.983C6.21607 11.2337 6.39967 11.0501 6.39967 10.8171V9.75065C6.39967 9.51758 6.21672 9.33398 5.983 9.33398Z" fill="#758093"/>
<path fill-rule="evenodd" clip-rule="evenodd" d="M9.81675 9.33398H8.01725C7.78419 9.33398 7.60059 9.51758 7.60059 9.75065V10.8171C7.60059 11.0501 7.78419 11.2337 8.01725 11.2337H9.83359C10.0667 11.2337 10.2503 11.0501 10.2503 10.8171V9.75065C10.2503 9.51758 10.0504 9.33398 9.81665 9.33398H9.81675Z" fill="#758093"/>
<path fill-rule="evenodd" clip-rule="evenodd" d="M13.6666 9.33398H11.8503C11.6172 9.33398 11.4336 9.51758 11.4336 9.75065V10.8171C11.4336 11.0501 11.6172 11.2337 11.8503 11.2337H13.6666C13.8997 11.2337 14.0833 11.0501 14.0833 10.8171V9.75065C14.0833 9.51758 13.8997 9.33398 13.6666 9.33398Z" fill="#758093"/>
<path fill-rule="evenodd" clip-rule="evenodd" d="M5.983 12.7168H4.16667C3.9336 12.7168 3.75 12.9004 3.75 13.1335V14.1999C3.75 14.4329 3.9336 14.6165 4.16667 14.6165H5.983C6.21607 14.6165 6.39967 14.4329 6.39967 14.1999V13.1335C6.39967 12.9167 6.21672 12.7168 5.983 12.7168Z" fill="#758093"/>
<path fill-rule="evenodd" clip-rule="evenodd" d="M9.81675 12.7168H8.01725C7.78419 12.7168 7.60059 12.9004 7.60059 13.1335V14.1999C7.60059 14.4329 7.78419 14.6165 8.01725 14.6165H9.83359C10.0667 14.6165 10.2503 14.4329 10.2503 14.1999V13.1335C10.2503 12.9167 10.0504 12.7168 9.81665 12.7168H9.81675Z" fill="#758093"/>
<path fill-rule="evenodd" clip-rule="evenodd" d="M13.6666 12.7168H11.8503C11.6172 12.7168 11.4336 12.9004 11.4336 13.1335V14.1999C11.4336 14.4329 11.6172 14.6165 11.8503 14.6165H13.6666C13.8997 14.6165 14.0833 14.4329 14.0833 14.1999V13.1335C14.0833 12.9167 13.8997 12.7168 13.6666 12.7168Z" fill="#758093"/>
</svg>
