<svg width="18" height="18" viewBox="0 0 18 18" fill="none" xmlns="http://www.w3.org/2000/svg">
<path fill-rule="evenodd" clip-rule="evenodd" d="M9.00004 2.45456C8.37086 2.45456 7.8617 2.96371 7.8617 3.5929V7.86167H3.59293C2.96374 7.86167 2.45459 8.37082 2.45459 9.00001C2.45459 9.6292 2.96374 10.1384 3.59293 10.1384H7.8617V14.4071C7.8617 15.0363 8.37086 15.5455 9.00004 15.5455C9.62923 15.5455 10.1384 15.0363 10.1384 14.4071V10.1384H14.4072C15.0363 10.1384 15.5455 9.6292 15.5455 9.00001C15.5455 8.37082 15.0363 7.86167 14.4072 7.86167H10.1384V3.5929C10.1384 2.96371 9.62923 2.45456 9.00004 2.45456Z" fill="#03A9F4"/>
</svg>
