<svg width="22" height="23" viewBox="0 0 22 23" fill="none" xmlns="http://www.w3.org/2000/svg">
<path fill-rule="evenodd" clip-rule="evenodd" d="M3.29619 12.2176C3.10642 12.0374 3 11.7927 3 11.537C3 11.282 3.10643 11.0365 3.29619 10.8563L8.31676 6.06784C8.5057 5.88686 8.76312 5.78535 9.03044 5.78535C9.29857 5.78535 9.55518 5.88687 9.74494 6.06784L11.7878 8.01624L15.107 4.84886L14.499 4.27048C14.3339 4.11939 14.2473 3.90614 14.2605 3.68817C14.2844 3.35137 14.546 3.07359 14.8942 3.01378L18.1044 2.51016C18.3495 2.47082 18.5995 2.54714 18.7744 2.71475C18.9501 2.88236 19.0301 3.12001 18.9897 3.35373L18.4617 6.40386C18.408 6.71391 18.1531 6.95706 17.828 7.00821C17.7868 7.01135 17.7463 7.01135 17.7051 7.00821C17.4898 7.00585 17.2835 6.92165 17.1325 6.77449L16.5327 6.20004L12.5006 10.0582C12.3117 10.2392 12.0551 10.3407 11.7869 10.3407C11.5188 10.3407 11.2622 10.2392 11.0733 10.0582L9.02217 8.11057L4.72353 12.2175C4.53459 12.3985 4.27799 12.5 4.00985 12.5C3.74254 12.5 3.48511 12.3985 3.29618 12.2175L3.29619 12.2176ZM3 15.8825C3 15.6063 3.22386 15.3825 3.5 15.3825H5.5C5.77614 15.3825 6 15.6063 6 15.8825V20.3825H3.5C3.22386 20.3825 3 20.1586 3 19.8825V15.8825ZM7.5 12.3825C7.22386 12.3825 7 12.6063 7 12.8825V20.3825H10V12.8825C10 12.6063 9.77614 12.3825 9.5 12.3825H7.5ZM11 14.8825C11 14.6063 11.2239 14.3825 11.5 14.3825H13.5C13.7761 14.3825 14 14.6063 14 14.8825V20.3825H11V14.8825ZM15.5 10.3825C15.2239 10.3825 15 10.6063 15 10.8825V20.3825H17.5C17.7761 20.3825 18 20.1586 18 19.8825V10.8825C18 10.6063 17.7761 10.3825 17.5 10.3825H15.5Z" fill="#03A9F4"/>
</svg>
