<svg width="20" height="20" viewBox="0 0 20 20" fill="none" xmlns="http://www.w3.org/2000/svg">
<path fill-rule="evenodd" clip-rule="evenodd" d="M13.9984 9.94883C13.9875 9.73721 13.9067 9.53626 13.7702 9.38075L7.50993 2.2911C7.35234 2.11429 7.13497 2.00919 6.90401 2.00066C6.67306 1.99143 6.44821 2.07878 6.27906 2.2428C6.10924 2.40684 6.00938 2.63477 6.00055 2.87622C5.9924 3.11765 6.07527 3.3527 6.23286 3.52952L11.9443 10L6.23286 16.4705C6.07594 16.6473 5.99239 16.8823 6.00123 17.1238C6.00938 17.3652 6.10991 17.5932 6.27906 17.7572C6.4482 17.9212 6.67304 18.0086 6.90401 17.9993C7.13496 17.9908 7.353 17.8857 7.50993 17.7089L13.7702 10.6193C13.9305 10.4375 14.0127 10.1953 13.9984 9.94892L13.9984 9.94883Z" fill="#939EB2"/>
</svg>
