<svg width="18" height="19" viewBox="0 0 18 19" fill="none" xmlns="http://www.w3.org/2000/svg">
<path fill-rule="evenodd" clip-rule="evenodd" d="M8.99956 2.95508C8.37037 2.95508 7.86122 3.46423 7.86122 4.09342V8.36219H3.59244C2.96325 8.36219 2.4541 8.87134 2.4541 9.50053C2.4541 10.1297 2.96325 10.6389 3.59244 10.6389H7.86122V14.9076C7.86122 15.5368 8.37037 16.046 8.99956 16.046C9.62875 16.046 10.1379 15.5368 10.1379 14.9076V10.6389H14.4067C15.0359 10.6389 15.545 10.1297 15.545 9.50053C15.545 8.87134 15.0359 8.36219 14.4067 8.36219H10.1379V4.09342C10.1379 3.46423 9.62875 2.95508 8.99956 2.95508Z" fill="#2B3549"/>
</svg>
