<svg width="20" height="20" viewBox="0 0 20 20" fill="none" xmlns="http://www.w3.org/2000/svg">
<path fill-rule="evenodd" clip-rule="evenodd" d="M6.00159 9.94883C6.01246 9.73721 6.09329 9.53626 6.22983 9.38075L12.4901 2.2911C12.6477 2.11429 12.865 2.00919 13.096 2.00066C13.3269 1.99143 13.5518 2.07878 13.7209 2.2428C13.8908 2.40684 13.9906 2.63477 13.9995 2.87622C14.0076 3.11765 13.9247 3.3527 13.7671 3.52952L8.05571 10L13.7671 16.4705C13.9241 16.6473 14.0076 16.8823 13.9988 17.1238C13.9906 17.3652 13.8901 17.5932 13.7209 17.7572C13.5518 17.9212 13.327 18.0086 13.096 17.9993C12.865 17.9908 12.647 17.8857 12.4901 17.7089L6.22983 10.6193C6.06952 10.4375 5.98733 10.1953 6.00159 9.94892L6.00159 9.94883Z" fill="#939EB2"/>
</svg>
