<svg width="24" height="24" viewBox="0 0 24 24" fill="none" xmlns="http://www.w3.org/2000/svg">
<path d="M23.1252 9.73615L17.9592 14.1991C17.3972 14.6584 17.2037 15.3691 17.323 15.9992L17.327 16.0204L17.3322 16.0414L19.0229 22.8132C19.0631 22.9859 18.9965 23.1189 18.9007 23.1925C18.8518 23.2299 18.8014 23.247 18.7579 23.2496C18.7197 23.2519 18.6672 23.2449 18.5995 23.2011L12.9572 19.4254C12.3595 18.9999 11.5923 19.0211 11.0004 19.4196C11.0003 19.4196 11.0003 19.4197 11.0002 19.4197L5.3735 23.2014C5.30595 23.2449 5.25367 23.2519 5.2157 23.2496C5.17239 23.247 5.12205 23.23 5.07327 23.1925C4.97741 23.1189 4.91057 22.9856 4.95072 22.8124L6.64013 16.02C6.64038 16.019 6.64062 16.0181 6.64087 16.0171C6.81464 15.3333 6.55854 14.5989 6.05396 14.1579L6.05398 14.1578L6.0491 14.1537L0.87482 9.70918C0.874495 9.7089 0.874171 9.70862 0.873848 9.70834C0.759371 9.6084 0.723137 9.46045 0.768559 9.31396C0.812768 9.17138 0.908577 9.10003 1.03029 9.09334L1.03029 9.09336L1.03652 9.09297L7.72872 8.66907L7.73106 8.66891C8.44024 8.62176 9.03941 8.15833 9.29131 7.50002L9.29133 7.50003L9.29316 7.49514L11.741 0.961931C11.7412 0.961384 11.7415 0.960837 11.7417 0.960293C11.8038 0.798982 11.9154 0.75 12.0124 0.75C12.1093 0.75 12.2209 0.798933 12.283 0.960052L14.7323 7.52025L14.7323 7.52026L14.7345 7.52597C14.9864 8.18424 15.5855 8.64772 16.2947 8.69486L16.2969 8.69499L22.9633 9.1189L22.9633 9.11892L22.9697 9.11928C23.0911 9.12595 23.187 9.19716 23.2314 9.34029C23.277 9.48751 23.2404 9.63587 23.1258 9.73567C23.1256 9.73583 23.1254 9.73599 23.1252 9.73615Z" fill="white" stroke="#939EB2" stroke-width="1.5"/>
</svg>
