<svg width="525" height="149" viewBox="0 0 525 149" fill="none" xmlns="http://www.w3.org/2000/svg">
<path d="M95 61.8703H87.13C86.806 61.8744 86.493 61.9884 86.2423 62.1937C85.9915 62.399 85.818 62.6834 85.75 63.0003L76.47 101C75.9367 103.16 75.4667 105.117 75.06 106.87C74.18 102.45 73.06 97.7703 71.65 92.8703L63.17 62.8703C63.0816 62.5792 62.9013 62.3245 62.6562 62.1442C62.4111 61.964 62.1143 61.8679 61.81 61.8703H52.34C52.0358 61.8679 51.739 61.964 51.4939 62.1442C51.2487 62.3245 51.0685 62.5792 50.98 62.8703L39.69 102.87L38.57 107.49C38.18 105.66 37.76 103.73 37.29 101.72L28.28 63.0003C28.2078 62.6881 28.0322 62.4096 27.7817 62.2099C27.5311 62.0102 27.2204 61.901 26.9 61.9003H18.9C18.6832 61.9008 18.4693 61.951 18.2749 62.047C18.0805 62.143 17.9106 62.2823 17.7784 62.4542C17.6461 62.626 17.5549 62.8259 17.5119 63.0384C17.4689 63.2509 17.4751 63.4705 17.53 63.6803L33.23 122.93C33.3175 123.224 33.4989 123.481 33.7464 123.661C33.9938 123.842 34.2937 123.936 34.6 123.93H42.6C42.906 123.935 43.2051 123.84 43.4522 123.659C43.6994 123.479 43.8811 123.223 43.97 122.93L56.48 77.7603C56.63 77.2203 56.78 76.6703 56.92 76.1203L57.36 77.7603L69.85 122.91C69.9418 123.201 70.1243 123.455 70.3708 123.635C70.6173 123.815 70.9149 123.912 71.22 123.91H78.77C79.0752 123.912 79.3728 123.815 79.6193 123.635C79.8658 123.455 80.0483 123.201 80.14 122.91L96.39 63.6603C96.4483 63.4507 96.457 63.2304 96.4154 63.0169C96.3737 62.8034 96.2829 62.6025 96.15 62.4303C96.0155 62.2535 95.8414 62.1107 95.6417 62.0134C95.4419 61.9162 95.2222 61.8671 95 61.8703Z" fill="#33A2D0"/>
<path d="M140.56 102.92C140.692 98.464 140.038 94.0196 138.63 89.79C137.203 85.9527 134.594 82.6681 131.179 80.4105C127.764 78.1529 123.719 77.0391 119.63 77.23C115.436 77.1066 111.302 78.242 107.76 80.49C104.546 82.6285 102.026 85.6592 100.51 89.21C98.897 93.0823 98.1004 97.2458 98.17 101.44C98.17 106.79 99.17 111.27 101.23 114.78C103.046 118.091 105.806 120.785 109.16 122.52C112.548 124.153 116.27 124.971 120.03 124.91C125.36 124.91 129.78 123.65 133.16 121.17C136.54 118.69 138.95 114.92 140.27 110.01C140.323 109.815 140.334 109.61 140.301 109.411C140.268 109.211 140.192 109.021 140.08 108.853C139.967 108.685 139.819 108.543 139.647 108.438C139.474 108.332 139.281 108.264 139.08 108.24L131.59 107.31C131.27 107.269 130.945 107.339 130.67 107.508C130.396 107.677 130.187 107.936 130.08 108.24C128.17 113.54 124.9 116.12 120.08 116.12C118.565 116.187 117.053 115.913 115.658 115.318C114.263 114.722 113.02 113.821 112.02 112.68C110.063 110.31 108.886 107.394 108.65 104.33H139.11C139.298 104.335 139.486 104.303 139.662 104.234C139.838 104.166 139.998 104.063 140.133 103.931C140.268 103.8 140.376 103.643 140.449 103.469C140.522 103.295 140.56 103.109 140.56 102.92V102.92ZM109.1 95.55C109.409 93.0839 110.511 90.7851 112.24 89C113.213 88.0059 114.382 87.2256 115.674 86.709C116.965 86.1925 118.35 85.951 119.74 86C121.026 85.9652 122.307 86.185 123.508 86.6466C124.71 87.1083 125.808 87.8027 126.74 88.69C128.524 90.5427 129.633 92.941 129.89 95.5L109.1 95.55Z" fill="#33A2D0"/>
<path d="M184.92 113.74V94.8405C184.92 90.5105 184.51 87.3305 183.68 85.1005C182.635 82.5644 180.681 80.5101 178.2 79.3405C175.53 77.9205 171.83 77.2305 166.88 77.2305C161.07 77.2305 156.37 78.4205 152.88 80.7805C151.092 82.0368 149.573 83.6375 148.413 85.4886C147.252 87.3397 146.472 89.4041 146.12 91.5605C146.079 91.7497 146.078 91.9454 146.118 92.1349C146.157 92.3245 146.237 92.5035 146.35 92.6605C146.465 92.8242 146.614 92.9614 146.786 93.0632C146.959 93.1649 147.151 93.2288 147.35 93.2505L154.44 94.2505C154.778 94.2986 155.122 94.2243 155.41 94.0409C155.698 93.8575 155.911 93.5771 156.01 93.2505C156.79 90.2505 157.92 88.3205 159.38 87.4905C161.38 86.4995 163.6 86.0348 165.83 86.1405C167.948 86.002 170.065 86.4336 171.96 87.3905C172.98 87.9047 173.787 88.7613 174.24 89.8105C174.592 91.2903 174.75 92.8098 174.71 94.3305C170.869 95.3339 166.953 96.0229 163 96.3905C159.734 96.667 156.521 97.3869 153.45 98.5305C151.044 99.5181 148.942 101.126 147.36 103.19C145.647 105.499 144.762 108.317 144.85 111.19C144.85 115.89 146.51 119.41 149.79 121.66C153.087 123.855 156.98 124.983 160.94 124.89C166.289 124.839 171.478 123.056 175.73 119.81C175.988 120.968 176.388 122.09 176.92 123.15C177.037 123.385 177.217 123.582 177.439 123.719C177.662 123.857 177.918 123.93 178.18 123.93H185.8C186.046 123.931 186.287 123.867 186.501 123.746C186.715 123.626 186.894 123.451 187.02 123.24C187.141 123.025 187.204 122.782 187.204 122.535C187.204 122.289 187.141 122.046 187.02 121.83C185.645 119.356 184.922 116.572 184.92 113.74V113.74ZM162.66 116.4C159.3 116.4 155.44 115.79 155.44 111.03C155.472 109.782 155.93 108.582 156.74 107.63C157.21 107.03 158.83 105.92 164.43 105.15C167.902 104.712 171.334 103.993 174.69 103V103.64C174.69 107.96 173.69 111.2 171.69 113.28C169.69 115.36 166.72 116.4 162.66 116.4V116.4Z" fill="#33A2D0"/>
<path d="M202.52 61.8701H195.25C194.466 61.8701 193.83 62.5059 193.83 63.2901V122.53C193.83 123.314 194.466 123.95 195.25 123.95H202.52C203.304 123.95 203.94 123.314 203.94 122.53V63.2901C203.94 62.5059 203.304 61.8701 202.52 61.8701Z" fill="#33A2D0"/>
<path d="M231.69 115.8C231.631 115.435 231.432 115.108 231.135 114.887C230.838 114.667 230.466 114.571 230.1 114.62C229.107 114.778 228.105 114.868 227.1 114.89C225.74 114.89 225.1 114.59 224.95 114.32C224.8 114.05 224.41 112.94 224.41 110.38V86.6903H230.3C230.675 86.6903 231.035 86.542 231.301 86.2779C231.567 86.0138 231.717 85.6551 231.72 85.2803V79.6003C231.717 79.2254 231.567 78.8668 231.301 78.6026C231.035 78.3385 230.675 78.1903 230.3 78.1903H224.4V64.6103C224.399 64.3597 224.331 64.114 224.204 63.8981C224.077 63.6821 223.895 63.5036 223.676 63.3808C223.458 63.2579 223.211 63.1949 222.961 63.1984C222.71 63.2018 222.465 63.2715 222.25 63.4003L215 67.7803C214.793 67.9076 214.622 68.0855 214.503 68.2972C214.384 68.5089 214.321 68.7474 214.32 68.9903V78.1903H210.4C210.029 78.1955 209.674 78.346 209.412 78.6096C209.151 78.8732 209.003 79.2288 209 79.6003V85.2803C209.003 85.6551 209.153 86.0138 209.419 86.2779C209.685 86.542 210.045 86.6903 210.42 86.6903H214.34V110C214.34 115 214.74 118 215.6 119.68C216.467 121.345 217.879 122.662 219.6 123.41C221.583 124.226 223.716 124.614 225.86 124.55C227.804 124.525 229.741 124.3 231.64 123.88C231.997 123.803 232.311 123.592 232.517 123.291C232.723 122.99 232.807 122.621 232.75 122.26L231.69 115.8Z" fill="#33A2D0"/>
<path d="M269.94 81.0001C267.04 78.4801 263.07 77.2001 258.16 77.2001C254 77.1401 249.953 78.5575 246.74 81.2001V63.2901C246.74 62.9152 246.592 62.5556 246.328 62.2895C246.063 62.0235 245.705 61.8728 245.33 61.8701H238.05C237.674 61.8727 237.314 62.0232 237.049 62.2889C236.783 62.5547 236.633 62.9143 236.63 63.2901V122.53C236.63 122.907 236.779 123.268 237.046 123.534C237.312 123.801 237.673 123.95 238.05 123.95H245.33C245.516 123.95 245.7 123.913 245.872 123.842C246.044 123.77 246.199 123.666 246.33 123.534C246.462 123.402 246.565 123.245 246.635 123.073C246.706 122.901 246.741 122.716 246.74 122.53V99.0601C246.74 94.7001 247.59 91.4201 249.27 89.3301C250.95 87.2401 253.27 86.3301 256.68 86.3301C260.09 86.3301 264.3 87.2701 264.3 95.3301V122.53C264.299 122.716 264.334 122.901 264.404 123.073C264.475 123.245 264.578 123.402 264.709 123.534C264.84 123.666 264.996 123.77 265.168 123.842C265.34 123.913 265.524 123.95 265.71 123.95H273C273.376 123.95 273.738 123.801 274.004 123.534C274.27 123.268 274.42 122.907 274.42 122.53V95.3301C274.41 88.3201 273 83.6401 269.94 81.0001Z" fill="#33A2D0"/>
<path d="M345.05 61.8698H334.5C334.2 61.8733 333.908 61.972 333.667 62.1517C333.427 62.3314 333.249 62.5828 333.16 62.8698L319 104.06C318.33 106.06 317.72 107.79 317.19 109.4L315.7 104.78L301.7 62.8398C301.613 62.552 301.435 62.2997 301.194 62.1198C300.953 61.9399 300.661 61.8418 300.36 61.8398H288.51C288.135 61.8425 287.777 61.9933 287.512 62.2593C287.248 62.5253 287.1 62.885 287.1 63.2598V122.5C287.099 122.686 287.134 122.87 287.205 123.042C287.275 123.215 287.378 123.371 287.51 123.503C287.641 123.635 287.797 123.74 287.968 123.812C288.14 123.883 288.324 123.92 288.51 123.92H296.07C296.447 123.92 296.808 123.77 297.074 123.504C297.341 123.238 297.49 122.876 297.49 122.5V80.6698L311.88 123C311.968 123.288 312.145 123.54 312.386 123.72C312.627 123.9 312.919 123.998 313.22 124H320.28C320.581 123.996 320.872 123.898 321.113 123.718C321.354 123.538 321.531 123.287 321.62 123L336.07 81.3398V122.53C336.07 122.716 336.107 122.901 336.178 123.073C336.25 123.246 336.354 123.402 336.486 123.534C336.618 123.666 336.774 123.77 336.947 123.842C337.119 123.913 337.304 123.95 337.49 123.95H345.05C345.236 123.95 345.42 123.913 345.592 123.842C345.764 123.77 345.92 123.665 346.051 123.533C346.182 123.401 346.285 123.245 346.356 123.072C346.426 122.9 346.461 122.716 346.46 122.53V63.2898C346.46 62.915 346.312 62.5553 346.048 62.2893C345.784 62.0233 345.425 61.8725 345.05 61.8698V61.8698Z" fill="#454851"/>
<path d="M393.6 113.74V94.8405C393.6 90.5105 393.19 87.3305 392.35 85.1005C391.308 82.5662 389.357 80.5121 386.88 79.3405C384.21 77.9205 380.51 77.2305 375.56 77.2305C369.75 77.2305 365.05 78.4205 361.56 80.7805C359.772 82.0368 358.254 83.6375 357.093 85.4886C355.932 87.3397 355.152 89.4041 354.8 91.5605C354.761 91.7509 354.762 91.9472 354.802 92.1372C354.843 92.3273 354.921 92.5071 355.034 92.6656C355.146 92.824 355.29 92.9576 355.456 93.0582C355.622 93.1588 355.808 93.2243 356 93.2505L363.09 94.2505C363.428 94.2986 363.772 94.2243 364.06 94.0409C364.348 93.8575 364.561 93.5771 364.66 93.2505C365.44 90.2505 366.57 88.3205 368.03 87.4905C370.03 86.4995 372.25 86.0348 374.48 86.1405C376.598 86.002 378.715 86.4336 380.61 87.3905C381.63 87.9047 382.438 88.7613 382.89 89.8105C383.242 91.2903 383.4 92.8098 383.36 94.3305C379.527 95.3531 375.618 96.0621 371.67 96.4505C368.404 96.727 365.192 97.4469 362.12 98.5905C359.712 99.5755 357.61 101.184 356.03 103.25C354.314 105.558 353.426 108.376 353.51 111.25C353.51 115.95 355.18 119.47 358.46 121.72C361.757 123.915 365.65 125.043 369.61 124.95C374.956 124.9 380.142 123.118 384.39 119.87C384.657 121.027 385.059 122.149 385.59 123.21C385.707 123.445 385.887 123.642 386.109 123.779C386.332 123.917 386.588 123.99 386.85 123.99H394.47C394.716 123.991 394.957 123.927 395.171 123.806C395.385 123.686 395.564 123.511 395.69 123.3C395.811 123.085 395.874 122.842 395.874 122.595C395.874 122.349 395.811 122.106 395.69 121.89C394.309 119.397 393.589 116.591 393.6 113.74V113.74ZM371.34 116.4C367.98 116.4 364.12 115.79 364.12 111.03C364.147 109.781 364.606 108.579 365.42 107.63C365.89 107.03 367.51 105.92 373.11 105.15C376.582 104.712 380.014 103.993 383.37 103V103.64C383.37 107.96 382.37 111.2 380.37 113.28C378.37 115.36 375.4 116.4 371.34 116.4V116.4Z" fill="#454851"/>
<path d="M439.11 78.1904H432.39C432.02 78.1982 431.668 78.3499 431.409 78.6132C431.149 78.8765 431.002 79.2307 431 79.6004V81.2604C427.921 78.602 423.967 77.1772 419.9 77.2604C417.184 77.1943 414.486 77.724 411.996 78.8125C409.507 79.9009 407.286 81.5215 405.49 83.5604C401.77 87.6904 399.88 93.5604 399.88 100.85C399.88 107.47 401.68 113.02 405.23 117.34C406.984 119.506 409.216 121.234 411.751 122.39C414.286 123.545 417.055 124.097 419.84 124C423.624 124.065 427.309 122.786 430.24 120.39C430.238 122.557 430.017 124.718 429.58 126.84C429.1 128.512 428.007 129.94 426.52 130.84C424.458 132.072 422.078 132.663 419.68 132.54C416.36 132.54 411.87 131.96 411.22 126.95C411.178 126.646 411.038 126.364 410.822 126.145C410.605 125.927 410.324 125.785 410.02 125.74L402.96 124.74C402.762 124.71 402.56 124.722 402.367 124.776C402.174 124.829 401.994 124.923 401.84 125.05C401.687 125.181 401.562 125.341 401.475 125.522C401.387 125.703 401.337 125.9 401.33 126.1C401.201 128.193 401.555 130.287 402.364 132.22C403.174 134.154 404.418 135.875 406 137.25C409.13 139.99 413.76 141.38 419.76 141.38C425.16 141.38 429.59 140.17 432.94 137.78C436.045 135.711 438.302 132.595 439.3 129C440.197 124.977 440.61 120.861 440.53 116.74V79.6004C440.527 79.2255 440.376 78.8669 440.11 78.6028C439.844 78.3386 439.485 78.1904 439.11 78.1904V78.1904ZM420.51 115.1C417.05 115.1 414.51 113.97 412.85 111.63C411.19 109.29 410.18 105.38 410.18 100.3C410.066 96.6744 411.015 93.0942 412.91 90.0004C413.7 88.7482 414.809 87.7293 416.124 87.0491C417.439 86.3688 418.912 86.0516 420.39 86.1304C421.878 86.0644 423.358 86.3798 424.69 87.0466C426.022 87.7134 427.161 88.7095 428 89.9404C430.022 93.0953 431.024 96.7962 430.87 100.54C430.87 105.08 429.93 108.72 428.09 111.36C427.253 112.582 426.117 113.567 424.789 114.222C423.462 114.877 421.988 115.179 420.51 115.1Z" fill="#454851"/>
<path d="M466.48 64.3499C466.346 64.2014 466.183 64.0828 466 64.0018C465.817 63.9208 465.62 63.8792 465.42 63.8799H459.16C458.828 63.8809 458.507 63.9971 458.252 64.2088C457.997 64.4204 457.823 64.7142 457.76 65.0399L445.48 131.68C445.442 131.884 445.449 132.094 445.501 132.295C445.553 132.496 445.649 132.682 445.782 132.842C445.915 133.001 446.081 133.13 446.269 133.217C446.457 133.305 446.662 133.351 446.87 133.35H457.92C458.267 133.35 458.602 133.223 458.862 132.992C459.122 132.762 459.288 132.445 459.33 132.1L466.83 65.4499C466.853 65.2522 466.834 65.0518 466.774 64.8621C466.713 64.6725 466.613 64.4978 466.48 64.3499V64.3499Z" fill="#33A2D0"/>
<path d="M456.51 50.5397L450.2 63.0797L463.02 54.7897L473.79 63.0797L471.87 49.6197L488.65 37.5797L471.02 40.6297L468.76 27.1797L460.97 41.8997L446.45 42.7497L456.51 50.5397Z" fill="#33A2D0"/>
<path d="M445.55 67.0698L444.55 69.0698L446.59 67.7498L448.31 69.0698L448 66.9198L450.68 64.9998L447.87 65.4898L447.5 63.3398L446.26 65.6898L443.95 65.8298L445.55 67.0698Z" fill="#33A2D0"/>
<path d="M439.08 59.5201L437.89 61.8901L440.32 60.3201L442.36 61.8901L442 59.3401L445.18 57.0601L441.83 57.6401L441.4 55.0801L439.93 57.8801L437.17 58.0401L439.08 59.5201Z" fill="#33A2D0"/>
<path d="M434.56 47.8597L432.89 51.1797L436.28 48.9797L439.13 51.1797L438.63 47.6197L443.06 44.4297L438.4 45.2397L437.8 41.6797L435.74 45.5697L431.9 45.7997L434.56 47.8597Z" fill="#33A2D0"/>
<path d="M443.35 28.5395L441.06 33.0995L445.73 30.0795L449.65 33.0995L448.95 28.1995L455.07 23.8095L448.64 24.9195L447.82 20.0195L444.98 25.3895L439.69 25.6995L443.35 28.5395Z" fill="#33A2D0"/>
<path d="M464.44 15.3597L461.57 21.0697L467.4 17.2997L472.31 21.0697L471.44 14.9397L479.07 9.45973L471.05 10.8497L470.02 4.71973L466.47 11.4297L459.86 11.8097L464.44 15.3597Z" fill="#33A2D0"/>
<path d="M490.8 20.9803L486.97 28.5903L494.76 23.5603L501.3 28.5903L500.13 20.4203L510.33 13.1103L499.62 14.9603L498.24 6.78027L493.51 15.7303L484.69 16.2503L490.8 20.9803Z" fill="#33A2D0"/>
<path d="M461.06 48.5402L458.28 54.0702L463.93 50.4102L468.68 54.0702L467.83 48.1402L475.23 42.8302L467.46 44.1702L466.46 38.2402L463.02 44.7302L456.63 45.1102L461.06 48.5402Z" fill="white"/>
<path d="M458.95 65.5098L457.25 75.7698H464.38L465.64 65.5098H458.95Z" fill="#F4F5F5"/>
<path d="M496.23 96.1102L511.79 81.0002C511.995 80.8042 512.137 80.5507 512.196 80.2729C512.255 79.9951 512.229 79.706 512.121 79.4434C512.013 79.1808 511.828 78.9569 511.59 78.8011C511.353 78.6453 511.074 78.5648 510.79 78.5702H501.36C501.174 78.5708 500.99 78.6081 500.818 78.6802C500.646 78.7523 500.491 78.8577 500.36 78.9902L485.57 94.0002V63.6502C485.57 63.2763 485.421 62.9176 485.157 62.6532C484.893 62.3888 484.534 62.2402 484.16 62.2402H476.88C476.505 62.2402 476.145 62.3885 475.879 62.6526C475.613 62.9167 475.463 63.2754 475.46 63.6502V122.9C475.463 123.275 475.613 123.634 475.879 123.898C476.145 124.162 476.505 124.31 476.88 124.31H484.16C484.534 124.31 484.893 124.162 485.157 123.897C485.421 123.633 485.57 123.274 485.57 122.9V106.47L489.02 103.15L502.27 123.67C502.4 123.867 502.576 124.029 502.784 124.141C502.992 124.253 503.224 124.311 503.46 124.31H512.46C512.716 124.311 512.967 124.242 513.187 124.112C513.407 123.982 513.588 123.795 513.71 123.57C513.83 123.343 513.886 123.087 513.874 122.831C513.862 122.574 513.781 122.325 513.64 122.11L496.23 96.1102Z" fill="#454851"/>
</svg>
